<svg xmlns="http://www.w3.org/2000/svg" width="63" height="63" viewBox="0 0 63 63"><defs><style>.cls-1{fill:#25d366;}.cls-2{fill:#fff;}</style></defs><title>btn-wsapp</title><g id="Capa_2" data-name="Capa 2"><g id="Capa_2-2" data-name="Capa 2"><circle class="cls-1" cx="31.5" cy="31.5" r="31.5"/><path class="cls-2" d="M44.79,16.69A19.52,19.52,0,0,0,14.08,40.24L11.31,50.34l10.34-2.72A19.45,19.45,0,0,0,31,50h0a19.7,19.7,0,0,0,19.7-19.51A19.59,19.59,0,0,0,44.79,16.69ZM31,46.71a16.19,16.19,0,0,1-8.26-2.26l-.59-.35L16,45.71l1.63-6-.39-.62a16.25,16.25,0,1,1,30.14-8.62A16.4,16.4,0,0,1,31,46.71Zm8.89-12.15C39.4,34.32,37,33.14,36.55,33s-.77-.25-1.1.25-1.26,1.58-1.55,1.92-.57.37-1.05.12c-2.87-1.43-4.75-2.56-6.64-5.8-.5-.86.5-.8,1.43-2.66a.9.9,0,0,0,0-.85c-.12-.25-1.1-2.65-1.5-3.62s-.8-.82-1.1-.84-.61,0-.93,0a1.8,1.8,0,0,0-1.3.61,5.48,5.48,0,0,0-1.7,4.07,9.55,9.55,0,0,0,2,5c.25.33,3.44,5.25,8.33,7.37,3.09,1.34,4.31,1.45,5.85,1.22.94-.14,2.88-1.18,3.29-2.32a4.08,4.08,0,0,0,.28-2.32C40.69,34.93,40.37,34.8,39.89,34.57Z"/></g></g></svg>